<?xml version="1.0" encoding="UTF-8"?>
<svg width="300" height="300" viewBox="0 0 300 300" fill="none" xmlns="http://www.w3.org/2000/svg">
  <!-- Gold border circle -->
  <circle cx="150" cy="150" r="145" fill="#1a1a2e" stroke="#ffc107" stroke-width="10"/>
  
  <!-- Dragon head - stylized as in the image -->
  <path d="M107.5,105 C115,90 127,80 140,75 C155,70 170,75 180,85 C190,95 188,110 182,120 C175,130 165,135 155,138 C145,140 135,140 125,135 C115,130 110,120 107.5,105 Z" fill="#cc0000"/>
  
  <!-- Dragon eye -->
  <circle cx="140" cy="110" r="7" fill="#ffcc00"/>
  
  <!-- Dragon snout -->
  <path d="M85,130 C95,125 105,123 112,125 C120,127 125,132 127,140 C125,145 120,150 112,153 C105,155 95,153 85,150 C80,140 80,135 85,130 Z" fill="#aa0000"/>
  
  <!-- Dragon horns -->
  <path d="M160,75 C170,65 180,60 190,60 C200,60 205,70 208,80 C205,90 200,100 190,105 C180,110 170,105 160,95 L160,75 Z" fill="#dd0000"/>
  <path d="M175,85 C185,75 200,73 210,75 C220,77 225,85 227,95 C225,105 220,112 210,115 C200,117 185,115 175,105 L175,85 Z" fill="#cc0000"/>
  
  <!-- Dragon neck -->
  <path d="M120,138 C130,150 140,160 150,168 C160,175 170,180 180,185 C190,190 200,195 210,205 L200,215 C190,210 180,205 170,200 C160,195 150,190 140,180 C130,170 125,160 120,138 Z" fill="#bb0000"/>
</svg>